<svg width="26" height="28" viewBox="0 0 26 28" fill="none" xmlns="http://www.w3.org/2000/svg">
<path d="M9.19162 25.7095V21.6203C9.19161 20.5841 10.0342 19.7423 11.0778 19.7357H14.9101C15.9585 19.7357 16.8084 20.5795 16.8084 21.6203V25.6976C16.8082 26.5964 17.5386 27.3268 18.4438 27.3333H21.0584C22.2794 27.3364 23.4517 26.8571 24.3162 26.0009C25.1808 25.1448 25.6666 23.9824 25.6666 22.77V11.1545C25.6666 10.1752 25.2294 9.24627 24.4728 8.61799L15.5906 1.56568C14.038 0.332151 11.8205 0.372004 10.3138 1.6605L1.62266 8.61799C0.8303 9.22775 0.356713 10.1594 0.333313 11.1545V22.7581C0.333313 25.2849 2.39649 27.3333 4.94154 27.3333H7.49637C7.93221 27.3364 8.3513 27.1668 8.66061 26.8619C8.96993 26.5571 9.14389 26.1423 9.14387 25.7095H9.19162Z" fill="#EC2029"/>
</svg>
